<?xml version="1.0" encoding="utf-8"?>
<!-- Svg Vector Icons : http://www.onlinewebfonts.com/icon -->
<!DOCTYPE svg PUBLIC "-//W3C//DTD SVG 1.1//EN" "http://www.w3.org/Graphics/SVG/1.1/DTD/svg11.dtd">
<svg version="1.1" xmlns="http://www.w3.org/2000/svg" xmlns:xlink="http://www.w3.org/1999/xlink" x="0px" y="0px" viewBox="0 0 1000 1000" enable-background="new 0 0 1000 1000" xml:space="preserve">
<metadata> Svg Vector Icons : http://www.onlinewebfonts.com/icon </metadata>
<g><path d="M544.5,10H212.9c-52.9,0-95.7,42.8-95.7,95.7v788.6c0,52.9,42.8,95.7,95.7,95.7h574.2c52.9,0,95.7-42.8,95.7-95.7v-546L544.5,10z M806.3,894.3c0,10.6-8.6,19.1-19.1,19.1H212.9c-10.6,0-19.1-8.6-19.1-19.1V105.7c0-10.6,8.6-19.1,19.1-19.1h299.9l7.1,7.1c-0.5,3.9-0.8,8-0.8,12V278c0,52.9,42.8,95.7,95.7,95.7h172.3c4.1,0,8.1-0.3,12-0.8l7.1,7.1V894.3z"/><path d="M679.8,571H538.3V429.5c0-21.1-17.1-38.3-38.3-38.3c-21.1,0-38.3,17.1-38.3,38.3V571H320.2c-21.1,0-38.3,17.1-38.3,38.3c0,21.1,17.1,38.3,38.3,38.3h141.5V789c0,21.1,17.1,38.3,38.3,38.3c21.1,0,38.3-17.1,38.3-38.3V647.5h141.5c21.1,0,38.3-17.1,38.3-38.3C718,588.1,700.9,571,679.8,571z"/></g>
</svg>