<svg id="Capa_1" enable-background="new 0 0 512 512" height="512" viewBox="0 0 512 512" width="512" xmlns="http://www.w3.org/2000/svg"><g><path d="m181 405h90v107h-90z" fill="#384949"/><path d="m226 405h45v107h-45z" fill="#293939"/><path d="m376 210v150h57l24-78-24-72z" fill="#293939"/><path d="m0 170.907v228.186l82.62-40.633v-146.92z" fill="#384949"/><g><path d="m224.417 111.708-26.834-13.416 34.146-68.292h114.271v30h-95.729z" fill="#293939"/></g><g><path d="m96.73 90-35.73 60 165 15v-75z" fill="#384949"/><path d="m61 150h330v270h-330z" fill="#4a696f"/><path d="m226 150h165v270h-165z" fill="#384949"/></g><g><g><g><g><path d="m226 240.51-45-27v142.98l45-27 74.15-44.49z" fill="#f0f7ff"/></g></g></g></g><path d="m300.15 285-74.15 44.49v-88.98z" fill="#dfe7f4"/><g><path d="m271 210h60v30h-60z" fill="#76e2f8"/></g><g><path d="m433 360 79 39.09v-228.18l-79 39.09" fill="#384949"/></g><g><path d="m436 90h-105v-90h105c24.813 0 45 20.187 45 45s-20.187 45-45 45z" fill="#4a696f"/></g></g></svg>