<svg height="480pt" viewBox="0 0 480 480" width="480pt" xmlns="http://www.w3.org/2000/svg"><path d="m432 240c0 106.039062-85.960938 192-192 192s-192-85.960938-192-192 85.960938-192 192-192 192 85.960938 192 192zm0 0" fill="#cfd2fc"/><path d="m240 480c-132.546875 0-240-107.453125-240-240s107.453125-240 240-240 240 107.453125 240 240c-.148438 132.484375-107.515625 239.851562-240 240zm0-464c-123.710938 0-224 100.289062-224 224s100.289062 224 224 224 224-100.289062 224-224c-.140625-123.652344-100.347656-223.859375-224-224zm0 0" fill="#8690fa"/><path d="m341.121094 201.855469-96-80c-.242188-.148438-.496094-.285157-.753906-.40625-.316407-.242188-.648438-.457031-1-.648438-.222657-.097656-.449219-.183593-.679688-.257812-.378906-.121094-.765625-.214844-1.160156-.277344-.386719-.097656-.777344-.160156-1.175782-.195313-.128906 0-.222656-.070312-.351562-.070312s-.230469.0625-.359375.070312c-.386719.035157-.769531.097657-1.144531.1875-.40625.0625-.804688.160157-1.191406.285157-.234376.089843-.457032.152343-.679688.257812-.34375.191407-.671875.40625-.984375.640625-.242187.167969-.527344.222656-.761719.414063l-96 80c-2.273437 1.804687-3.390625 4.703125-2.921875 7.566406.472657 2.867187 2.460938 5.25 5.195313 6.230469 2.730468.980468 5.78125.402344 7.96875-1.507813l82.878906-69.066406v206.921875c0 4.417969 3.582031 8 8 8s8-3.582031 8-8v-206.921875l82.878906 69.066406c2.1875 1.910157 5.238282 2.488281 7.96875 1.507813 2.734375-.980469 4.722656-3.363282 5.195313-6.230469.46875-2.863281-.648438-5.761719-2.921875-7.566406zm0 0" fill="#5153ff"/></svg>