<?xml version="1.0" encoding="UTF-8" standalone="no"?>
<svg
   xmlns:dc="http://purl.org/dc/elements/1.1/"
   xmlns:cc="http://creativecommons.org/ns#"
   xmlns:rdf="http://www.w3.org/1999/02/22-rdf-syntax-ns#"
   xmlns:svg="http://www.w3.org/2000/svg"
   xmlns="http://www.w3.org/2000/svg"
   id="svg4"
   version="1.1"
   viewBox="0 0 50 50">
  <metadata
     id="metadata10">
    <rdf:RDF>
      <cc:Work
         rdf:about="">
        <dc:format>image/svg+xml</dc:format>
        <dc:type
           rdf:resource="http://purl.org/dc/dcmitype/StillImage" />
      </cc:Work>
    </rdf:RDF>
  </metadata>
  <defs
     id="defs8" />
  <path
     id="path2"
     overflow="visible"
     white-space="normal"
     font-family="sans-serif"
     font-weight="400"
     d="M 6 7 C 3.8026661 7 2 8.8026661 2 11 L 2 39 C 2 41.197334 3.8026661 43 6 43 L 44 43 C 46.197334 43 48 41.197334 48 39 L 48 11 C 48 8.8026661 46.197334 7 44 7 L 6 7 z M 6 9 L 44 9 C 45.116666 9 46 9.8833339 46 11 L 46 39 C 46 40.116666 45.116666 41 44 41 L 6 41 C 4.8833339 41 4 40.116666 4 39 L 4 11 C 4 9.8833339 4.8833339 9 6 9 z M 13 21 A 4 4 0 0 0 9 25 A 4 4 0 0 0 13 29 A 4 4 0 0 0 17 25 A 4 4 0 0 0 13 21 z M 38.392578 21.287109 C 36.278578 21.287109 34.984375 22.698047 34.984375 24.998047 C 34.984375 27.297047 36.283578 28.713844 38.392578 28.714844 C 40.199578 28.714844 41.507406 27.575844 41.566406 25.964844 L 39.847656 25.964844 C 39.745656 26.721844 39.169438 27.220703 38.398438 27.220703 C 37.412437 27.220703 36.810547 26.369187 36.810547 24.992188 C 36.810547 23.620187 37.411578 22.78125 38.392578 22.78125 C 39.163578 22.78125 39.744891 23.297453 39.837891 24.064453 L 41.5625 24.064453 C 41.5085 22.468453 40.164578 21.287109 38.392578 21.287109 z M 21 21.476562 L 21 28.523438 L 22.792969 28.523438 L 22.792969 26.056641 L 23.720703 26.056641 L 24.925781 28.521484 L 26.9375 28.521484 L 25.53125 25.792969 C 26.30225 25.455969 26.732422 24.664781 26.732422 23.800781 C 26.732422 22.345781 25.747563 21.476562 24.101562 21.476562 L 21 21.476562 z M 28.658203 21.476562 L 28.658203 28.523438 L 33.486328 28.523438 L 33.486328 27.080078 L 30.449219 27.080078 L 30.449219 25.640625 L 33.306641 25.640625 L 33.306641 24.322266 L 30.449219 24.322266 L 30.449219 22.917969 L 33.486328 22.917969 L 33.486328 21.476562 L 28.658203 21.476562 z M 22.792969 22.828125 L 23.847656 22.828125 C 24.487656 22.828125 24.902344 23.213453 24.902344 23.814453 C 24.902344 24.425453 24.510562 24.792969 23.851562 24.792969 L 22.792969 24.792969 L 22.792969 22.828125 z"
     style="line-height:normal;text-indent:0;text-align:start;text-decoration-line:none;text-decoration-style:solid;text-decoration-color:#000;text-transform:none;block-progression:tb;isolation:auto;mix-blend-mode:normal" />
</svg>
